<svg width="1440" height="1080" viewBox="0 0 1440 1080" fill="none" xmlns="http://www.w3.org/2000/svg">
<rect width="1440" height="1080" fill="#003641"/>
<g filter="url(#filter0_b_107_7108)">
<circle cx="720" cy="540" r="475" fill="url(#paint0_radial_107_7108)"/>
</g>
<path d="M683.721 253.923L668.605 249.443L673.192 234.439L661.934 231L657.451 246.004L642.44 241.524L639 252.673L654.011 257.258L649.529 272.262L660.683 275.596L665.269 260.592L680.281 265.177L683.721 253.923Z" stroke="#F39C12" stroke-width="4" stroke-miterlimit="10"/>
<path d="M528.964 396.595L522.709 382.216L537.199 375.964L532.613 365.232L518.123 371.379L511.972 357L501.235 361.585L507.386 376.068L493 382.216L497.587 392.948L511.972 386.8L518.123 401.18L528.964 396.595Z" stroke="#49479D" stroke-width="4" stroke-miterlimit="10"/>
<path d="M1160.56 395.664L1141.17 389.829L1147.01 370.448L1132.52 366.072L1126.68 385.453L1107.29 379.617L1102.91 394.101L1122.3 399.936L1116.46 419.317L1130.95 423.693L1136.79 404.312L1156.18 410.147L1160.56 395.664Z" stroke="#EF8C82" stroke-width="4" stroke-miterlimit="10"/>
<path d="M416.616 208.923L401.605 204.339L406.088 189.334L394.934 186L390.347 201.004L375.336 196.42L372 207.673L387.011 212.258L382.424 227.262L393.683 230.596L398.165 215.592L413.176 220.177L416.616 208.923Z" stroke="#63D995" stroke-width="4" stroke-miterlimit="10"/>
<path d="M1262.67 460.509L1259.48 452.698L1267 449.302L1264.56 443.472L1257.1 446.811L1253.9 439L1248.33 441.491L1251.52 449.302L1244 452.698L1246.44 458.528L1253.9 455.189L1257.1 463L1262.67 460.509Z" stroke="#49479D" stroke-width="4" stroke-miterlimit="10"/>
<path d="M863.465 328.769L863.152 313.035L878.789 312.723L878.58 301.053L862.943 301.365L862.631 285.632L850.851 285.84L851.164 301.574L835.527 301.886L835.736 313.556L851.477 313.244L851.685 328.978L863.465 328.769Z" stroke="#00AE9D" stroke-width="4" stroke-miterlimit="10"/>
<path d="M484.855 493.419L466.428 475L448 493.419L466.428 511.839L484.855 493.419Z" stroke="#F39C12" stroke-width="4" stroke-miterlimit="10"/>
<path d="M981.553 286.779L1009.18 324.707" stroke="#00AE9D" stroke-width="4" stroke-miterlimit="10"/>
<path d="M966.646 297.615L994.27 335.543" stroke="#00AE9D" stroke-width="4" stroke-miterlimit="10"/>
<path d="M107.118 408.65L72.3008 440.117" stroke="#00AE9D" stroke-width="4" stroke-miterlimit="10"/>
<path d="M94.8174 395L60 426.363" stroke="#00AE9D" stroke-width="4" stroke-miterlimit="10"/>
<path d="M515 323.198L534.494 321.531L545.752 305.381L565.245 303.714L576.504 287.667L595.997 286" stroke="#00AE9D" stroke-width="4" stroke-miterlimit="10"/>
<path d="M1240.11 380.924C1240.11 382.279 1238.96 383.425 1237.6 383.425C1236.25 383.425 1235.1 382.279 1235.1 380.924C1235.1 379.569 1236.25 378.423 1237.6 378.423C1239.06 378.423 1240.11 379.569 1240.11 380.924Z" fill="#F39C12"/>
<path d="M1256.58 380.924C1256.58 382.279 1255.43 383.425 1254.07 383.425C1252.72 383.425 1251.57 382.279 1251.57 380.924C1251.57 379.569 1252.72 378.423 1254.07 378.423C1255.53 378.423 1256.58 379.569 1256.58 380.924Z" fill="#F39C12"/>
<path d="M1273.05 380.924C1273.05 382.279 1271.9 383.425 1270.54 383.425C1269.19 383.425 1268.04 382.279 1268.04 380.924C1268.04 379.569 1269.19 378.423 1270.54 378.423C1271.9 378.423 1273.05 379.569 1273.05 380.924Z" fill="#F39C12"/>
<path d="M1289.52 380.924C1289.52 382.279 1288.37 383.425 1287.01 383.425C1285.66 383.425 1284.51 382.279 1284.51 380.924C1284.51 379.569 1285.66 378.423 1287.01 378.423C1288.37 378.423 1289.52 379.569 1289.52 380.924Z" fill="#F39C12"/>
<path d="M1305.88 380.924C1305.88 382.279 1304.74 383.425 1303.38 383.425C1302.03 383.425 1300.88 382.279 1300.88 380.924C1300.88 379.569 1302.03 378.423 1303.38 378.423C1304.74 378.423 1305.88 379.569 1305.88 380.924Z" fill="#F39C12"/>
<path d="M1322.35 380.924C1322.35 382.279 1321.21 383.425 1319.85 383.425C1318.5 383.425 1317.35 382.279 1317.35 380.924C1317.35 379.569 1318.5 378.423 1319.85 378.423C1321.21 378.423 1322.35 379.569 1322.35 380.924Z" fill="#F39C12"/>
<path d="M1338.82 380.924C1338.82 382.279 1337.68 383.425 1336.32 383.425C1334.97 383.425 1333.82 382.279 1333.82 380.924C1333.82 379.569 1334.97 378.423 1336.32 378.423C1337.68 378.423 1338.82 379.569 1338.82 380.924Z" fill="#F39C12"/>
<path d="M1355.19 380.924C1355.19 382.279 1354.04 383.425 1352.69 383.425C1351.33 383.425 1350.19 382.279 1350.19 380.924C1350.19 379.569 1351.33 378.423 1352.69 378.423C1354.15 378.423 1355.19 379.569 1355.19 380.924Z" fill="#F39C12"/>
<path d="M1371.66 380.924C1371.66 382.279 1370.51 383.425 1369.16 383.425C1367.8 383.425 1366.66 382.279 1366.66 380.924C1366.66 379.569 1367.8 378.423 1369.16 378.423C1370.51 378.423 1371.66 379.569 1371.66 380.924Z" fill="#F39C12"/>
<path d="M918.311 499.501C918.311 500.855 917.165 502.001 915.81 502.001C914.454 502.001 913.308 500.855 913.308 499.501C913.308 498.146 914.454 497 915.81 497C917.165 497 918.311 498.042 918.311 499.501Z" fill="#49479D"/>
<path d="M934.677 499.501C934.677 500.855 933.531 502.001 932.176 502.001C930.821 502.001 929.674 500.855 929.674 499.501C929.674 498.146 930.821 497 932.176 497C933.635 497 934.677 498.042 934.677 499.501Z" fill="#49479D"/>
<path d="M951.148 499.501C951.148 500.855 950.002 502.001 948.646 502.001C947.291 502.001 946.145 500.855 946.145 499.501C946.145 498.146 947.291 497 948.646 497C950.002 497 951.148 498.042 951.148 499.501Z" fill="#49479D"/>
<path d="M967.619 499.501C967.619 500.855 966.472 502.001 965.117 502.001C963.762 502.001 962.615 500.855 962.615 499.501C962.615 498.146 963.762 497 965.117 497C966.472 497 967.619 498.042 967.619 499.501Z" fill="#49479D"/>
<path d="M983.984 499.501C983.984 500.855 982.838 502.001 981.482 502.001C980.127 502.001 978.98 500.855 978.98 499.501C978.98 498.146 980.127 497 981.482 497C982.942 497 983.984 498.042 983.984 499.501Z" fill="#49479D"/>
<path d="M1000.45 499.501C1000.45 500.855 999.308 502.001 997.953 502.001C996.598 502.001 995.451 500.855 995.451 499.501C995.451 498.146 996.598 497 997.953 497C999.308 497 1000.45 498.042 1000.45 499.501Z" fill="#49479D"/>
<path d="M910.18 512.421C910.18 513.776 909.033 514.922 907.678 514.922C906.322 514.922 905.176 513.776 905.176 512.421C905.176 511.067 906.322 509.92 907.678 509.92C909.033 510.025 910.18 511.067 910.18 512.421Z" fill="#49479D"/>
<path d="M926.65 512.421C926.65 513.776 925.504 514.922 924.148 514.922C922.793 514.922 921.646 513.776 921.646 512.421C921.646 511.067 922.793 509.92 924.148 509.92C925.504 510.025 926.65 511.067 926.65 512.421Z" fill="#49479D"/>
<path d="M943.017 512.421C943.017 513.776 941.871 514.922 940.516 514.922C939.16 514.922 938.014 513.776 938.014 512.421C938.014 511.067 939.16 509.92 940.516 509.92C941.975 510.025 943.017 511.067 943.017 512.421Z" fill="#49479D"/>
<path d="M959.487 512.421C959.487 513.776 958.34 514.922 956.985 514.922C955.63 514.922 954.483 513.776 954.483 512.421C954.483 511.067 955.63 509.92 956.985 509.92C958.34 509.92 959.487 511.067 959.487 512.421Z" fill="#49479D"/>
<path d="M975.958 512.421C975.958 513.776 974.811 514.922 973.456 514.922C972.101 514.922 970.954 513.776 970.954 512.421C970.954 511.067 972.101 509.92 973.456 509.92C974.811 510.025 975.958 511.067 975.958 512.421Z" fill="#49479D"/>
<path d="M992.324 512.421C992.324 513.776 991.177 514.922 989.822 514.922C988.467 514.922 987.32 513.776 987.32 512.421C987.32 511.067 988.467 509.92 989.822 509.92C991.282 510.025 992.324 511.067 992.324 512.421Z" fill="#49479D"/>
<path d="M1008.79 512.421C1008.79 513.776 1007.65 514.922 1006.29 514.922C1004.94 514.922 1003.79 513.776 1003.79 512.421C1003.79 511.067 1004.94 509.92 1006.29 509.92C1007.65 510.025 1008.79 511.067 1008.79 512.421Z" fill="#49479D"/>
<path d="M913.036 725.595L919.291 711.216L904.801 704.964L909.387 694.232L923.877 700.379L930.028 686L940.765 690.585L934.614 705.068L949 711.216L944.413 721.948L930.028 715.8L923.877 730.18L913.036 725.595Z" stroke="#49479D" stroke-width="4" stroke-miterlimit="10"/>
<path d="M281.441 724.664L300.83 718.829L294.993 699.448L309.483 695.072L315.32 714.453L334.71 708.617L339.088 723.101L319.699 728.936L325.536 748.317L311.046 752.693L305.209 733.312L285.819 739.147L281.441 724.664Z" stroke="#EF8C82" stroke-width="4" stroke-miterlimit="10"/>
<path d="M1025.38 537.923L1040.39 533.339L1035.91 518.334L1047.07 515L1051.65 530.004L1066.66 525.42L1070 536.673L1054.99 541.258L1059.58 556.262L1048.32 559.596L1043.83 544.592L1028.82 549.177L1025.38 537.923Z" stroke="#63D995" stroke-width="4" stroke-miterlimit="10"/>
<path d="M179.329 789.509L182.522 781.698L175 778.302L177.435 772.472L184.904 775.811L188.097 768L193.671 770.491L190.478 778.302L198 781.698L195.565 787.528L188.097 784.189L184.904 792L179.329 789.509Z" stroke="#49479D" stroke-width="4" stroke-miterlimit="10"/>
<path d="M957.145 822.419L975.572 804L994 822.419L975.572 840.839L957.145 822.419Z" stroke="#F39C12" stroke-width="4" stroke-miterlimit="10"/>
<path d="M768.811 822.719L737.329 801.88L771 785L768.811 822.719Z" stroke="#49479D" stroke-width="4" stroke-miterlimit="10"/>
<path d="M460.447 615.779L432.823 653.707" stroke="#00AE9D" stroke-width="4" stroke-miterlimit="10"/>
<path d="M475.354 626.615L447.73 664.543" stroke="#00AE9D" stroke-width="4" stroke-miterlimit="10"/>
<path d="M1334.88 737.65L1369.7 769.117" stroke="#00AE9D" stroke-width="4" stroke-miterlimit="10"/>
<path d="M1347.18 724L1382 755.363" stroke="#00AE9D" stroke-width="4" stroke-miterlimit="10"/>
<path d="M927 652.198L907.506 650.531L896.248 634.381L876.755 632.714L865.496 616.667L846.003 615" stroke="#00AE9D" stroke-width="4" stroke-miterlimit="10"/>
<path d="M201.895 709.924C201.895 711.279 203.041 712.425 204.397 712.425C205.752 712.425 206.898 711.279 206.898 709.924C206.898 708.569 205.752 707.423 204.397 707.423C202.937 707.423 201.895 708.569 201.895 709.924Z" fill="#F39C12"/>
<path d="M185.424 709.924C185.424 711.279 186.571 712.425 187.926 712.425C189.281 712.425 190.428 711.279 190.428 709.924C190.428 708.569 189.281 707.423 187.926 707.423C186.466 707.423 185.424 708.569 185.424 709.924Z" fill="#F39C12"/>
<path d="M168.954 709.924C168.954 711.279 170.101 712.425 171.456 712.425C172.811 712.425 173.958 711.279 173.958 709.924C173.958 708.569 172.811 707.423 171.456 707.423C170.101 707.423 168.954 708.569 168.954 709.924Z" fill="#F39C12"/>
<path d="M152.484 709.924C152.484 711.279 153.63 712.425 154.985 712.425C156.341 712.425 157.487 711.279 157.487 709.924C157.487 708.569 156.341 707.423 154.985 707.423C153.63 707.423 152.484 708.569 152.484 709.924Z" fill="#F39C12"/>
<path d="M136.117 709.924C136.117 711.279 137.264 712.425 138.619 712.425C139.974 712.425 141.121 711.279 141.121 709.924C141.121 708.569 139.974 707.423 138.619 707.423C137.264 707.423 136.117 708.569 136.117 709.924Z" fill="#F39C12"/>
<path d="M119.647 709.924C119.647 711.279 120.793 712.425 122.148 712.425C123.504 712.425 124.65 711.279 124.65 709.924C124.65 708.569 123.504 707.423 122.148 707.423C120.793 707.423 119.647 708.569 119.647 709.924Z" fill="#F39C12"/>
<path d="M103.176 709.924C103.176 711.279 104.323 712.425 105.678 712.425C107.033 712.425 108.18 711.279 108.18 709.924C108.18 708.569 107.033 707.423 105.678 707.423C104.323 707.423 103.176 708.569 103.176 709.924Z" fill="#F39C12"/>
<path d="M86.8107 709.924C86.8107 711.279 87.9574 712.425 89.3126 712.425C90.6677 712.425 91.8145 711.279 91.8145 709.924C91.8145 708.569 90.6677 707.423 89.3126 707.423C87.8531 707.423 86.8107 708.569 86.8107 709.924Z" fill="#F39C12"/>
<path d="M70.3401 709.924C70.3401 711.279 71.4868 712.425 72.842 712.425C74.1972 712.425 75.3438 711.279 75.3438 709.924C75.3438 708.569 74.1972 707.423 72.842 707.423C71.4868 707.423 70.3401 708.569 70.3401 709.924Z" fill="#F39C12"/>
<path d="M193.556 722.949C193.556 724.304 194.703 725.45 196.058 725.45C197.413 725.45 198.56 724.304 198.56 722.949C198.56 721.594 197.413 720.448 196.058 720.448C194.703 720.448 193.556 721.594 193.556 722.949Z" fill="#F39C12"/>
<path d="M177.085 722.949C177.085 724.304 178.232 725.45 179.587 725.45C180.942 725.45 182.089 724.304 182.089 722.949C182.089 721.594 180.942 720.448 179.587 720.448C178.232 720.448 177.085 721.594 177.085 722.949Z" fill="#F39C12"/>
<path d="M160.615 722.949C160.615 724.304 161.761 725.45 163.116 725.45C164.471 725.45 165.618 724.304 165.618 722.949C165.618 721.594 164.471 720.448 163.116 720.448C161.761 720.448 160.615 721.594 160.615 722.949Z" fill="#F39C12"/>
<path d="M144.248 722.949C144.248 724.304 145.395 725.45 146.75 725.45C148.105 725.45 149.252 724.304 149.252 722.949C149.252 721.594 148.105 720.448 146.75 720.448C145.291 720.448 144.248 721.594 144.248 722.949Z" fill="#F39C12"/>
<path d="M127.778 722.949C127.778 724.304 128.924 725.45 130.279 725.45C131.635 725.45 132.781 724.304 132.781 722.949C132.781 721.594 131.635 720.448 130.279 720.448C128.924 720.448 127.778 721.594 127.778 722.949Z" fill="#F39C12"/>
<path d="M111.307 722.949C111.307 724.304 112.453 725.45 113.809 725.45C115.164 725.45 116.311 724.304 116.311 722.949C116.311 721.594 115.164 720.448 113.809 720.448C112.453 720.448 111.307 721.594 111.307 722.949Z" fill="#F39C12"/>
<path d="M94.9417 722.949C94.9417 724.304 96.0883 725.45 97.4435 725.45C98.7986 725.45 99.9453 724.304 99.9453 722.949C99.9453 721.594 98.7986 720.448 97.4435 720.448C96.0883 720.448 94.9417 721.594 94.9417 722.949Z" fill="#F39C12"/>
<path d="M78.4708 722.949C78.4708 724.304 79.6175 725.45 80.9727 725.45C82.3279 725.45 83.4746 724.304 83.4746 722.949C83.4746 721.594 82.3279 720.448 80.9727 720.448C79.6175 720.448 78.4708 721.594 78.4708 722.949Z" fill="#F39C12"/>
<path d="M62.0002 722.949C62.0002 724.304 63.147 725.45 64.5021 725.45C65.8573 725.45 67.0039 724.304 67.0039 722.949C67.0039 721.594 65.8573 720.448 64.5021 720.448C63.147 720.448 62.0002 721.594 62.0002 722.949Z" fill="#F39C12"/>
<path d="M572.996 828.501C572.996 829.855 574.143 831.001 575.498 831.001C576.853 831.001 578 829.855 578 828.501C578 827.146 576.853 826 575.498 826C574.143 826 572.996 827.042 572.996 828.501Z" fill="#49479D"/>
<path d="M556.63 828.501C556.63 829.855 557.777 831.001 559.132 831.001C560.487 831.001 561.634 829.855 561.634 828.501C561.634 827.146 560.487 826 559.132 826C557.672 826 556.63 827.042 556.63 828.501Z" fill="#49479D"/>
<path d="M540.159 828.501C540.159 829.855 541.306 831.001 542.661 831.001C544.016 831.001 545.163 829.855 545.163 828.501C545.163 827.146 544.016 826 542.661 826C541.306 826 540.159 827.042 540.159 828.501Z" fill="#49479D"/>
<path d="M523.689 828.501C523.689 829.855 524.835 831.001 526.19 831.001C527.546 831.001 528.692 829.855 528.692 828.501C528.692 827.146 527.546 826 526.19 826C524.835 826 523.689 827.042 523.689 828.501Z" fill="#49479D"/>
<path d="M507.323 828.501C507.323 829.855 508.469 831.001 509.824 831.001C511.179 831.001 512.326 829.855 512.326 828.501C512.326 827.146 511.179 826 509.824 826C508.365 826 507.323 827.042 507.323 828.501Z" fill="#49479D"/>
<path d="M490.852 828.501C490.852 829.855 491.998 831.001 493.354 831.001C494.709 831.001 495.855 829.855 495.855 828.501C495.855 827.146 494.709 826 493.354 826C491.998 826 490.852 827.042 490.852 828.501Z" fill="#49479D"/>
<path d="M474.381 828.501C474.381 829.855 475.528 831.001 476.883 831.001C478.238 831.001 479.385 829.855 479.385 828.501C479.385 827.146 478.238 826 476.883 826C475.528 826 474.381 827.042 474.381 828.501Z" fill="#49479D"/>
<path d="M458.016 828.501C458.016 829.855 459.162 831.001 460.518 831.001C461.873 831.001 463.02 829.855 463.02 828.501C463.02 827.146 461.873 826 460.518 826C459.058 826 458.016 827.042 458.016 828.501Z" fill="#49479D"/>
<path d="M441.545 828.501C441.545 829.855 442.692 831.001 444.047 831.001C445.402 831.001 446.549 829.855 446.549 828.501C446.549 827.146 445.402 826 444.047 826C442.692 826 441.545 827.042 441.545 828.501Z" fill="#49479D"/>
<path d="M564.656 841.421C564.656 842.776 565.803 843.922 567.158 843.922C568.513 843.922 569.66 842.776 569.66 841.421C569.66 840.067 568.513 838.92 567.158 838.92C565.803 839.025 564.656 840.067 564.656 841.421Z" fill="#49479D"/>
<path d="M548.29 841.421C548.29 842.776 549.437 843.922 550.792 843.922C552.147 843.922 553.294 842.776 553.294 841.421C553.294 840.067 552.147 838.92 550.792 838.92C549.333 839.025 548.29 840.067 548.29 841.421Z" fill="#49479D"/>
<path d="M531.82 841.421C531.82 842.776 532.967 843.922 534.322 843.922C535.678 843.922 536.824 842.776 536.824 841.421C536.824 840.067 535.678 838.92 534.322 838.92C532.967 839.025 531.82 840.067 531.82 841.421Z" fill="#49479D"/>
<path d="M515.35 841.421C515.35 842.776 516.496 843.922 517.852 843.922C519.207 843.922 520.354 842.776 520.354 841.421C520.354 840.067 519.207 838.92 517.852 838.92C516.496 839.025 515.35 840.067 515.35 841.421Z" fill="#49479D"/>
<path d="M498.983 841.421C498.983 842.776 500.129 843.922 501.484 843.922C502.84 843.922 503.986 842.776 503.986 841.421C503.986 840.067 502.84 838.92 501.484 838.92C500.025 839.025 498.983 840.067 498.983 841.421Z" fill="#49479D"/>
<path d="M482.513 841.421C482.513 842.776 483.66 843.922 485.015 843.922C486.37 843.922 487.517 842.776 487.517 841.421C487.517 840.067 486.37 838.92 485.015 838.92C483.66 838.92 482.513 840.067 482.513 841.421Z" fill="#49479D"/>
<path d="M466.042 841.421C466.042 842.776 467.189 843.922 468.544 843.922C469.899 843.922 471.046 842.776 471.046 841.421C471.046 840.067 469.899 838.92 468.544 838.92C467.189 839.025 466.042 840.067 466.042 841.421Z" fill="#49479D"/>
<path d="M449.676 841.421C449.676 842.776 450.823 843.922 452.178 843.922C453.533 843.922 454.68 842.776 454.68 841.421C454.68 840.067 453.533 838.92 452.178 838.92C450.718 839.025 449.676 840.067 449.676 841.421Z" fill="#49479D"/>
<path d="M433.205 841.421C433.205 842.776 434.352 843.922 435.707 843.922C437.062 843.922 438.209 842.776 438.209 841.421C438.209 840.067 437.062 838.92 435.707 838.92C434.352 839.025 433.205 840.067 433.205 841.421Z" fill="#49479D"/>
<defs>
<filter id="filter0_b_107_7108" x="121" y="-59" width="1198" height="1198" filterUnits="userSpaceOnUse" color-interpolation-filters="sRGB">
<feFlood flood-opacity="0" result="BackgroundImageFix"/>
<feGaussianBlur in="BackgroundImage" stdDeviation="62"/>
<feComposite in2="SourceAlpha" operator="in" result="effect1_backgroundBlur_107_7108"/>
<feBlend mode="normal" in="SourceGraphic" in2="effect1_backgroundBlur_107_7108" result="shape"/>
</filter>
<radialGradient id="paint0_radial_107_7108" cx="0" cy="0" r="1" gradientUnits="userSpaceOnUse" gradientTransform="translate(720 540) rotate(90) scale(475)">
<stop stop-color="#006074"/>
<stop offset="0.744792" stop-color="#003641"/>
</radialGradient>
</defs>
</svg>
